{"title":"Ram-Leela - (2013) - 1 CD Web-DL Rip XVID MP3{MaXX Releasers}","uid":9512986,"size":744896045,"categoryP":"video","categoryS":"movies","magnet":"?xt=urn:btih:739d379b6ca0a9b9eb7953231041f71d4a596d55&amp;dn=Ram-Leela+-+%282013%29+-+1+CD+Web-DL+Rip+XVID+MP3%7BMaXX+Releasers%7D&amp;tr=udp%3A%2F%2Ftracker.openbittorrent.com%3A80&amp;tr=udp%3A%2F%2Fopen.demonii.com%3A1337&amp;tr=udp%3A%2F%2Ftracker.coppersurfer.tk%3A6969&amp;tr=udp%3A%2F%2Fexodus.desync.com%3A6969","seeders":0,"leechers":1,"uploader":"shailendramaxx","files":17,"time":1390451503,"description":"\n\nComplete name                            : Ram-Leela - (2013) - 1 CD Web-DL Rip XVID MP3{MaXX Releasers}\nFormat                                   : AVI\nFormat/Info                              : Audio Video Interleave\nFile size                                : 700 MiB\nDuration                                 : 2h 30mn\nOverall bit rate mode                    : Variable\nOverall bit rate                         : 652 Kbps\n\nVideo:-\n\nID                                       : 0\nFormat                                   : MPEG-4 Visual\nFormat profile                           : Advanced Simple@L5\nFormat settings, BVOP                    : 2\nFormat settings, QPel                    : No\nFormat settings, GMC                     : No warppoints\nFormat settings, Matrix                  : Default (H.263)\nCodec ID                                 : XVID\nCodec ID/Hint                            : XviD\nDuration                                 : 2h 30mn\nBit rate                                 : 550 Kbps\nWidth                                    : 620 pixels\nHeight                                   : 272 pixels\nDisplay aspect ratio                     : 2.25:1\nFrame rate                               : 25.000 fps\nColor space                              : YUV\nChroma subsampling                       : 4:2:0\nBit depth                                : 8 bits\nScan type                                : Progressive\nCompression mode                         : Lossy\nBits/(Pixel*Frame)                       : 0.130\nStream size                              : 590 MiB (84%)\nWriting library                          : XviD 1.2.1 (UTC 2008-12-04)\n\nAudio:-\n\nID                                       : 1\nFormat                                   : MPEG Audio\nFormat version                           : Version 1\nFormat profile                           : Layer 3\nMode                                     : Joint stereo\nMode extension                           : MS Stereo\nCodec ID                                 : 55\nCodec ID/Hint                            : MP3\nDuration                                 : 2h 30mn\nBit rate mode                            : Variable\nBit rate                                 : 96.0 Kbps\nChannel(s)                               : 2 channels\nSampling rate                            : 32.0 KHz\nCompression mode                         : Lossy\nStream size                              : 98.7 MiB (14%)\nAlignment                                : Aligned on interleaves\nInterleave, duration                     : 36 ms (0.90 video frame)\nInterleave, preload duration             : 112 ms\nTitle                                    : VTS_01_1 Tc0 L2 2ch 48 224 DELAY 0ms\nWriting library                          : LAME3.99r\nEncoding settings                        : -m j -V 4 -q 2 -lowpass 15.1 \n\n                       All Credits Goes To DUS (Thanks)\n\nSCREENS:-\n\n\n[URL=http://imgur.com/L7zHEfW][IMG]http://i.imgur.com/L7zHEfW.jpg[/IMG][/URL]\n\n[URL=http://imgur.com/ccsrFZo][IMG]http://i.imgur.com/ccsrFZo.jpg[/IMG][/URL]\n\n[URL=http://imgur.com/ccsrFZo][IMG]http://i.imgur.com/ccsrFZo.jpg[/IMG][/URL]\n\n[URL=http://imgur.com/0hEYEph][IMG]http://i.imgur.com/0hEYEph.jpg[/IMG][/URL]\n\n[URL=http://imgur.com/rEeim9C][IMG]http://i.imgur.com/rEeim9C.jpg[/IMG][/URL]\n\n[URL=http://imgur.com/iNdR5Ki][IMG]http://i.imgur.com/iNdR5Ki.jpg[/IMG][/URL]\n\n[URL=http://imgur.com/dXJlHrz][IMG]http://i.imgur.com/dXJlHrz.jpg[/IMG][/URL]\n\n[URL=http://imgur.com/N2Ds6IP][IMG]http://i.imgur.com/N2Ds6IP.jpg[/IMG][/URL]\n\n[URL=http://imgur.com/YiNCPXr][IMG]http://i.imgur.com/YiNCPXr.jpg[/IMG][/URL]\n\n[URL=http://imgur.com/tFZvynM][IMG]http://i.imgur.com/tFZvynM.jpg[/IMG][/URL]\n\nSubs.............: English (Hardcoded)\n\n\nSAMPLE AND SCREENSHOTS INCLUDED.\n\nPLEASE SEED AFTER DOWNLOAD. THANKS.\n","torrent":{"xt":"urn:btih:739d379b6ca0a9b9eb7953231041f71d4a596d55","amp;dn":"Ram-Leela+-+%282013%29+-+1+CD+Web-DL+Rip+XVID+MP3%7BMaXX+Releasers%7D","amp;tr":["udp%3A%2F%2Ftracker.openbittorrent.com%3A80","udp%3A%2F%2Fopen.demonii.com%3A1337","udp%3A%2F%2Ftracker.coppersurfer.tk%3A6969","udp%3A%2F%2Fexodus.desync.com%3A6969"],"infoHash":"739d379b6ca0a9b9eb7953231041f71d4a596d55","infoHashBuffer":{"type":"Buffer","data":[115,157,55,155,108,160,169,185,235,121,83,35,16,65,247,29,74,89,109,85]},"announce":[],"urlList":[]}}